HIERARCHY
ROOT Hips
{
 OFFSET 0.000000 0.000000 0.000000
 CHANNELS 6 Xposition Yposition Zposition Yrotation Xrotation Zrotation
 JOINT Chest
 {
  OFFSET 0.000000 12.953391 -0.028419
  CHANNELS 3 Yrotation Xrotation Zrotation
  JOINT Chest2
  {
   OFFSET 0.000000 10.280254 0.051622
   CHANNELS 3 Yrotation Xrotation Zrotation
   JOINT Chest3
   {
    OFFSET 0.000000 9.287180 0.000000
    CHANNELS 3 Yrotation Xrotation Zrotation
    JOINT Chest4
    {
     OFFSET 0.000000 9.287180 0.000000
     CHANNELS 3 Yrotation Xrotation Zrotation
     JOINT Neck
     {
      OFFSET 0.000000 13.296264 0.000000
      CHANNELS 3 Yrotation Xrotation Zrotation
      JOINT Head
      {
       OFFSET 0.000000 8.959264 0.099003
       CHANNELS 3 Yrotation Xrotation Zrotation
       End Site
       {
        OFFSET 0.000000 17.121337 0.039303
       }
      }
     }
     JOINT RightCollar
     {
      OFFSET -3.193511 7.451388 0.000000
      CHANNELS 3 Yrotation Xrotation Zrotation
      JOINT RightShoulder
      {
       OFFSET -15.792092 0.000000 0.000000
       CHANNELS 3 Yrotation Xrotation Zrotation
       JOINT RightElbow
       {
        OFFSET -31.151839 0.000000 0.000000
        CHANNELS 3 Yrotation Xrotation Zrotation
        JOINT RightWrist
        {
         OFFSET -25.536298 0.000000 0.002321
         CHANNELS 3 Yrotation Xrotation Zrotation
         End Site
         {
          OFFSET -19.133213 0.000000 0.000000
         }
        }
       }
      }
     }
     JOINT LeftCollar
     {
      OFFSET 3.193511 7.451388 0.000000
      CHANNELS 3 Yrotation Xrotation Zrotation
      JOINT LeftShoulder
      {
       OFFSET 15.792092 0.000000 0.000000
       CHANNELS 3 Yrotation Xrotation Zrotation
       JOINT LeftElbow
       {
        OFFSET 31.151839 0.000000 0.000000
        CHANNELS 3 Yrotation Xrotation Zrotation
        JOINT LeftWrist
        {
         OFFSET 25.536298 0.000000 0.002321
         CHANNELS 3 Yrotation Xrotation Zrotation
         End Site
         {
          OFFSET 19.133213 0.000000 0.000000
         }
        }
       }
      }
     }
    }
   }
  }
 }
 JOINT RightHip
 {
  OFFSET -10.745749 0.139252 0.014209
  CHANNELS 3 Yrotation Xrotation Zrotation
  JOINT RightKnee
  {
   OFFSET 0.000000 -43.743899 -0.006071
   CHANNELS 3 Yrotation Xrotation Zrotation
   JOINT RightAnkle
   {
    OFFSET 0.000000 -43.214199 0.089931
    CHANNELS 3 Yrotation Xrotation Zrotation
    JOINT RightToe
    {
     OFFSET 0.000000 -9.699830 19.151588
     CHANNELS 3 Yrotation Xrotation Zrotation
     End Site
     {
      OFFSET 0.000000 -1.292898 4.893873
     }
    }
   }
  }
 }
 JOINT LeftHip
 {
  OFFSET 10.745749 0.139252 0.014209
  CHANNELS 3 Yrotation Xrotation Zrotation
  JOINT LeftKnee
  {
   OFFSET 0.000000 -43.743899 -0.006071
   CHANNELS 3 Yrotation Xrotation Zrotation
   JOINT LeftAnkle
   {
    OFFSET 0.000000 -43.214199 0.089931
    CHANNELS 3 Yrotation Xrotation Zrotation
    JOINT LeftToe
    {
     OFFSET 0.000000 -9.699830 19.151588
     CHANNELS 3 Yrotation Xrotation Zrotation
     End Site
     {
      OFFSET 0.000000 -1.292898 4.893873
     }
    }
   }
  }
 }
}
MOTION
Frames: 12
Frame Time: 0.016667
94.099184 92.009335 -94.141075 174.503285 7.492764 -6.373592 -0.920854 7.042027 2.450913 -0.445699 3.124926 1.101179 -0.445678 3.124932 1.101178 -0.339797 2.342908 0.827957 -0.016421 23.504214 -2.616860 0.650010 7.501389 -4.701197 6.405321 4.071658 12.066156 2.247872 1.080319 72.613811 -4.979100 5.559551 -1.071220 18.324468 -5.591351 -14.141203 -6.334763 5.070791 -11.601746 -16.506830 -2.044471 -69.609792 -33.551077 -8.173754 3.619218 4.886523 -3.355251 19.692645 3.334852 -31.550592 -5.904124 -2.555323 20.240974 -1.020324 -9.569778 -2.581334 11.931134 -0.000000 -0.000000 0.000000 9.311990 12.470744 6.702234 -4.447510 26.312053 2.235307 -14.484736 3.156733 6.570100 -4.482288 -52.898668 9.099764
95.379714 91.762454 -97.313779 174.387449 7.106920 -6.391272 -0.784076 7.117777 2.451941 -0.385459 3.159293 1.099634 -0.385459 3.159293 1.099634 -0.294711 2.368786 0.826511 0.112147 23.686215 -2.828504 0.929866 7.849667 -5.112716 6.306122 3.698523 11.990391 0.974271 2.575774 72.703789 -4.811384 7.897704 -0.568364 18.635177 -6.203735 -14.072990 -6.331788 5.014775 -11.617120 -16.750093 -1.808564 -69.310930 -38.098516 -8.236777 4.974323 5.367666 -3.210035 20.194975 1.463998 -31.935530 -4.534764 3.183493 24.659506 0.293564 -10.910762 -1.457137 14.080502 0.000000 0.000000 0.000000 9.342444 10.084103 6.562295 -3.802281 32.238041 2.931540 -12.985946 8.663897 4.533307 -5.780584 -57.055279 10.687436
96.574312 91.768487 -100.333869 174.220841 6.834439 -6.590087 -0.549215 7.300130 2.566007 -0.284015 3.241431 1.146734 -0.284022 3.241439 1.146743 -0.219059 2.430567 0.861342 0.227494 23.647850 -2.862447 1.147876 7.784256 -5.204485 6.242176 3.217882 12.046684 -0.027176 3.857664 72.671088 -4.287000 8.853512 -0.314768 18.744058 -6.727907 -14.035826 -6.633426 5.611750 -11.495373 -17.654228 -2.366285 -69.021657 -42.548679 -8.741365 6.705539 5.857475 -3.370909 20.603859 -0.413454 -31.412032 -2.939605 5.426892 27.227519 0.823375 -11.020398 -2.672449 14.277034 -0.000000 -0.000000 -0.000000 8.565327 7.050047 5.986523 -3.608597 38.780684 2.934983 -9.198171 14.459767 3.107251 -2.578373 -47.568406 6.531214
97.667804 91.962816 -103.267709 173.989361 6.646183 -6.856834 -0.255639 7.527891 2.727589 -0.157690 3.344194 1.213739 -0.157697 3.344205 1.213750 -0.124899 2.507863 0.910925 0.334929 23.495635 -2.805923 1.331982 7.504905 -5.133621 6.210829 2.702354 12.153745 -0.806110 4.955028 72.558472 -3.511761 9.146460 -0.163367 18.776748 -7.247344 -14.021637 -7.064270 6.527343 -11.294947 -18.931419 -3.298109 -68.711741 -46.897017 -9.270812 8.694127 6.376162 -3.674004 20.970284 -2.292663 -30.269306 -1.313468 5.942269 28.849938 0.810813 -10.742160 -5.103310 13.452161 -0.000000 -0.000000 0.000000 7.506566 3.504750 5.172091 -3.676510 45.566759 2.337323 -4.180987 20.125868 2.175156 -0.138535 -30.653551 2.859625
98.603724 92.315903 -106.138955 174.003237 6.589089 -6.890857 -0.061399 7.712410 2.793304 -0.073747 3.427326 1.239594 -0.073747 3.427326 1.239594 -0.062253 2.570358 0.929832 0.405080 23.355931 -2.744077 1.446903 7.246603 -5.043540 6.201295 2.372500 12.237020 -1.338318 5.702099 72.537056 -2.929906 9.323978 -0.071361 18.787842 -7.622495 -13.982573 -7.316482 7.195553 -11.138679 -19.789828 -4.203083 -68.220946 -50.800728 -8.979865 9.969665 6.886847 -3.818780 21.238534 -3.860986 -28.728284 -0.191606 6.508972 29.632723 0.771013 -10.720114 -7.223843 12.588065 0.000000 0.000000 0.000000 7.384838 -0.062189 4.371732 -3.449606 51.080939 1.991703 -0.287566 22.947330 2.388184 0.470849 -17.654839 0.917387
99.323305 92.860585 -108.946195 174.396462 6.682713 -6.519196 -0.044538 7.815461 2.686949 -0.065096 3.473222 1.192078 -0.065088 3.473211 1.192071 -0.055576 2.604786 0.894146 0.428631 23.293476 -2.691925 1.477789 7.129763 -4.957078 6.222929 2.327878 12.259449 -1.556297 6.000352 72.698506 -2.796926 9.607930 -0.053352 18.806285 -7.795680 -13.908264 -7.180772 7.258673 -11.098003 -19.757134 -5.013537 -67.488495 -53.934695 -7.527535 9.647917 7.369094 -3.641675 21.342441 -5.308763 -26.830468 0.306759 8.294137 29.509713 1.003978 -11.444450 -8.500569 12.021958 -0.000000 0.000000 0.000000 9.000387 -3.453463 3.543593 -2.119385 54.788037 2.981483 1.095106 20.949596 4.347654 -0.406960 -12.978165 -0.930728
99.885313 93.564025 -111.690842 175.036727 6.901864 -5.912906 -0.129494 7.878009 2.484432 -0.099680 3.500610 1.103702 -0.099675 3.500609 1.103699 -0.081058 2.625285 0.828086 0.415400 23.243390 -2.632792 1.440279 7.034297 -4.848160 6.266069 2.469495 12.261820 -1.518490 5.949602 72.960595 -2.858123 9.773637 -0.095309 18.801524 -7.824101 -13.811227 -6.871849 7.073597 -11.107831 -19.317152 -5.829142 -66.637947 -56.695042 -5.613244 8.400069 7.845681 -3.335354 21.301313 -6.519373 -24.598948 0.352323 10.130038 28.559243 1.151797 -12.447120 -9.455825 11.427386 0.000000 0.000000 -0.000000 11.615174 -6.773458 2.453189 0.049198 57.142099 4.996092 0.775567 16.025921 7.010510 -1.691099 -12.319398 -3.231252
100.409584 94.298176 -114.400785 175.834039 7.229891 -5.287385 -0.245763 7.931781 2.270862 -0.147859 3.524008 1.010991 -0.147859 3.524008 1.010991 -0.116696 2.642770 0.758857 0.363904 23.138884 -2.603077 1.343883 6.837133 -4.783568 6.290983 2.720193 12.288302 -1.382899 5.686136 73.229226 -2.791596 9.700774 -0.120020 18.740823 -7.739372 -13.675356 -6.719972 7.144738 -11.074699 -19.093623 -6.492273 -65.840366 -59.690260 -3.981726 7.527737 8.347066 -3.130389 21.179083 -6.807490 -22.248946 -0.044508 10.412522 27.116874 0.939517 -12.975071 -10.127460 10.723770 0.000000 0.000000 0.000000 14.111401 -9.991139 1.017116 1.993810 58.233939 6.883269 0.209152 11.273750 8.838030 -2.100834 -14.031550 -5.055371
100.933146 95.071821 -117.073348 176.852739 7.707552 -4.683148 -0.407579 7.992593 2.067268 -0.216383 3.550334 0.923498 -0.216386 3.550285 0.923490 -0.167612 2.662367 0.693650 0.256511 22.929842 -2.637508 1.167437 6.445755 -4.821737 6.272668 3.119156 12.379823 -1.228299 5.166980 73.469982 -2.368407 9.214972 -0.106122 18.574304 -7.472434 -13.447041 -6.922645 7.827097 -10.929320 -19.426929 -6.933893 -65.096260 -63.156877 -2.772863 7.730670 8.913045 -3.158018 20.985761 -5.307635 -19.740962 -1.057828 7.855347 25.062624 0.318117 -12.608433 -10.494721 9.814344 0.000000 0.000000 -0.000000 16.425561 -13.136393 -0.913790 2.650959 58.009905 7.794995 0.403761 7.596962 9.438536 -1.199128 -19.457428 -6.083233
101.418970 95.876177 -119.711207 178.034003 8.288072 -4.049353 -0.601595 8.045612 1.854182 -0.298930 3.573295 0.832416 -0.298939 3.573232 0.832406 -0.229011 2.679487 0.625848 0.108367 22.668118 -2.702559 0.927245 5.955957 -4.904217 6.240835 3.625882 12.501539 -0.979337 4.433696 73.703120 -1.818586 8.490580 -0.084413 18.352845 -7.092806 -13.180322 -7.267965 8.767273 -10.724461 -19.953152 -7.198601 -64.378850 -66.758190 -1.646708 8.375079 9.503170 -3.290527 20.733046 -3.027104 -17.011506 -2.312432 3.921469 22.444075 -0.287802 -11.762914 -10.573831 8.766428 -0.000000 -0.000000 -0.000000 18.682710 -16.130022 -3.211652 2.413765 56.655001 7.805600 0.703953 4.110452 9.417305 0.249593 -27.338676 -6.939069
101.875807 96.556845 -122.350287 179.097359 8.835044 -3.472555 -0.714753 8.076359 1.653866 -0.345704 3.586937 0.745638 -0.345704 3.586937 0.745638 -0.263575 2.689787 0.561078 -0.032311 22.439255 -2.733021 0.689776 5.526167 -4.924688 6.234287 4.044184 12.578984 -0.563385 3.750216 73.919446 -1.507134 7.931085 -0.050745 18.193696 -6.840373 -13.017863 -7.479524 9.403840 -10.544222 -20.234022 -7.291141 -63.825637 -70.159847 -0.574270 8.792393 10.031020 -3.357432 20.504443 -1.962384 -14.343408 -3.114607 1.071609 19.884443 -0.527745 -10.939648 -10.471649 7.734546 0.000000 0.000000 0.000000 19.947615 -18.963743 -5.313858 2.492244 54.721281 7.187518 0.847787 1.137371 9.057708 1.199258 -32.089704 -7.132137
102.307137 97.071885 -124.986351 179.999106 9.333123 -2.967940 -0.718216 8.062236 1.470198 -0.343959 3.580998 0.664276 -0.343936 3.581025 0.664278 -0.261750 2.685413 0.500062 -0.149546 22.271330 -2.694687 0.473645 5.208483 -4.825986 6.258417 4.273015 12.568903 0.012559 3.247057 74.115697 -1.615846 7.844937 0.044902 18.171897 -6.883355 -13.024316 -7.454654 9.456296 -10.415015 -20.169987 -7.079639 -63.496725 -73.408787 0.306458 8.754083 10.537607 -3.159433 20.336742 -3.025902 -11.904232 -3.299234 0.255177 17.505651 -0.430235 -10.333804 -10.138324 6.703898 0.002858 0.304418 -0.182193 19.531085 -21.859872 -6.875544 3.681936 52.338614 6.152323 0.962529 -1.130610 8.458165 1.155278 -31.294922 -5.359167
